<?xml version="1.0" encoding="utf-8"?><svg xmlns="http://www.w3.org/2000/svg" xmlns:xlink="http://www.w3.org/1999/xlink"><symbol viewBox="0 0 41.061 34.16" id="arrow" xmlns="http://www.w3.org/2000/svg"><path data-name="Path 1919" d="M40.405 15.485L25.576.654a2.254 2.254 0 0 0-3.176 0l-1.346 1.347a2.231 2.231 0 0 0-.656 1.589 2.275 2.275 0 0 0 .656 1.608l8.651 8.67H2.218A2.193 2.193 0 0 0 0 16.079v1.9a2.277 2.277 0 0 0 2.218 2.307H29.8l-8.749 8.718a2.226 2.226 0 0 0 0 3.156l1.349 1.346a2.254 2.254 0 0 0 3.178 0l14.827-14.832a2.266 2.266 0 0 0 0-3.19z"/></symbol><symbol viewBox="0 0 24.205 23.432" id="check" xmlns="http://www.w3.org/2000/svg"><path data-name="Path 215" d="M11.176 22.622l12.7-18.605a1.889 1.889 0 0 0-.5-2.624L21.823.328a1.888 1.888 0 0 0-2.624.5L8.694 16.212l-4.612-3.29a1.888 1.888 0 0 0-2.633.44l-1.1 1.537a1.888 1.888 0 0 0 .44 2.633l7.783 5.553a1.841 1.841 0 0 0 2.604-.463z"/></symbol><symbol viewBox="0 0 30.307 30.307" id="click" xmlns="http://www.w3.org/2000/svg"><path data-name="Path 1911" d="M30.047 25.024l-5.121-5.121 2.511-2.511a.888.888 0 0 0-.347-1.47l-15.068-5.023a.888.888 0 0 0-1.123 1.123l5.023 15.068a.888.888 0 0 0 1.47.347l2.511-2.511 5.121 5.121a.888.888 0 0 0 1.256 0l3.767-3.767a.888.888 0 0 0 0-1.256zm-4.395 3.139l-5.121-5.121a.888.888 0 0 0-1.256 0l-2.123 2.123-4.007-12.021 12.021 4.007-2.123 2.123a.888.888 0 0 0 0 1.256l5.121 5.121z"/><path data-name="Path 1912" d="M11.543 7.1a.888.888 0 0 0 .888-.888V.888a.888.888 0 1 0-1.776 0v5.327a.888.888 0 0 0 .888.885z"/><path data-name="Path 1913" d="M4.636 3.381A.888.888 0 1 0 3.38 4.637L7.148 8.4A.888.888 0 1 0 8.4 7.148z"/><path data-name="Path 1914" d="M7.148 14.682l-3.767 3.767a.888.888 0 0 0 1.256 1.256L8.4 15.937a.888.888 0 0 0-1.256-1.256z"/><path data-name="Path 1915" d="M15.937 8.4l3.767-3.767a.888.888 0 1 0-1.256-1.256l-3.766 3.771A.888.888 0 1 0 15.937 8.4z"/><path data-name="Path 1916" d="M7.1 11.543a.888.888 0 0 0-.885-.888H.888a.888.888 0 1 0 0 1.776h5.327a.888.888 0 0 0 .885-.888z"/></symbol><symbol viewBox="0 0 90.254 90.389" id="dif-1" xmlns="http://www.w3.org/2000/svg"><path data-name="Path 1946" d="M86.822 18.107L68.58 12.826v70.429a9.5 9.5 0 0 1-.058 1.041 4.754 4.754 0 0 0 5.029-3.408l16.514-56.89a4.755 4.755 0 0 0-3.243-5.891z"/><path data-name="Path 1947" d="M26.817 20.658a15.835 15.835 0 0 0-5.138 3.6h3.522a19.541 19.541 0 0 1 1.616-3.6z"/><path data-name="Path 1948" d="M24.339 27.437h-5a15.651 15.651 0 0 0-1.925 6.095h6.2a36.3 36.3 0 0 1 .725-6.095z"/><path data-name="Path 1949" d="M44.523 24.261a15.838 15.838 0 0 0-5.138-3.6 19.529 19.529 0 0 1 1.616 3.6z"/><path data-name="Path 1950" d="M21.679 45.976a15.835 15.835 0 0 0 5.138 3.6 19.54 19.54 0 0 1-1.616-3.6z"/><path data-name="Path 1951" d="M39.413 33.532a31.968 31.968 0 0 0-.839-6.095H27.628a31.931 31.931 0 0 0-.839 6.095z"/><path data-name="Path 1952" d="M33.1 19.346c-1.569 0-3.236 1.853-4.467 4.913h8.935c-1.232-3.058-2.898-4.913-4.468-4.913z"/><path data-name="Path 1953" d="M23.611 36.707h-6.2a15.649 15.649 0 0 0 1.925 6.095h5a36.345 36.345 0 0 1-.725-6.095z"/><path data-name="Path 1954" d="M42.592 33.532h6.2a15.649 15.649 0 0 0-1.925-6.095h-5a36.333 36.333 0 0 1 .725 6.095z"/><path data-name="Path 1955" d="M33.1 50.891c1.57 0 3.236-1.853 4.468-4.913h-8.935c1.232 3.06 2.898 4.913 4.467 4.913z"/><path data-name="Path 1956" d="M41.859 42.802h5a15.65 15.65 0 0 0 1.925-6.095h-6.2a36.293 36.293 0 0 1-.725 6.095z"/><path data-name="Path 1957" d="M16.628 64.562h-2.723v5.183h2.723c2.154 0 3.247-.886 3.247-2.635-.001-1.691-1.093-2.548-3.247-2.548z"/><path data-name="Path 1958" d="M25.402 70.217h3.761l-1.9-4.1z"/><path data-name="Path 1959" d="M59.068 0H7.134A7.142 7.142 0 0 0 0 7.134v76.121a7.142 7.142 0 0 0 7.134 7.134h51.934a7.142 7.142 0 0 0 7.134-7.134V7.134A7.142 7.142 0 0 0 59.068 0zM33.101 16.173a18.947 18.947 0 1 1-18.946 18.946 18.968 18.968 0 0 1 18.946-18.946zm-19.2 56.061v3.006a1.189 1.189 0 0 1-1.189 1.189H12.6a1.189 1.189 0 0 1-1.189-1.189V63.26a1.189 1.189 0 0 1 1.189-1.189h4.024c3.538 0 5.736 1.931 5.736 5.038 0 3.161-2.2 5.124-5.736 5.124h-2.719zm20.02 3.646a1.189 1.189 0 0 1-1 .549h-.139a1.189 1.189 0 0 1-1.08-.692l-1.395-3.031h-6.035l-1.378 3.027a1.189 1.189 0 0 1-1.082.7h-.158a1.189 1.189 0 0 1-1.081-1.684l5.484-11.98a1.189 1.189 0 0 1 1.081-.694h.232a1.189 1.189 0 0 1 1.079.689l5.553 11.98a1.19 1.19 0 0 1-.077 1.136zm5.285.549a7.206 7.206 0 0 1-4.831-1.929 1.189 1.189 0 0 1-.014-1.7l.075-.075a1.189 1.189 0 0 1 1.679 0 4.648 4.648 0 0 0 3.095 1.212c1.256 0 2.723-.406 2.723-1.55.01-1.1-.657-1.48-2.8-2.131-1.9-.575-4.5-1.361-4.5-4.407 0-2.261 2-3.779 4.968-3.779a7.569 7.569 0 0 1 3.7.982 1.189 1.189 0 0 1 .4 1.646l-.049.078a1.189 1.189 0 0 1-1.62.392 5.155 5.155 0 0 0-2.428-.608c-1.143 0-2.478.338-2.478 1.289 0 1.03.654 1.393 2.755 2.028 1.932.584 4.575 1.383 4.551 4.518-.009 2.41-2.104 4.034-5.222 4.034zm10.365 0a7.2 7.2 0 0 1-4.828-1.929 1.189 1.189 0 0 1-.016-1.7l.075-.075a1.189 1.189 0 0 1 1.68 0 4.649 4.649 0 0 0 3.1 1.212c1.256 0 2.722-.406 2.722-1.55.009-1.1-.657-1.48-2.8-2.131-1.9-.575-4.5-1.362-4.5-4.407 0-2.261 2-3.779 4.968-3.779a7.571 7.571 0 0 1 3.7.982 1.188 1.188 0 0 1 .392 1.651l-.049.078a1.189 1.189 0 0 1-1.617.387 5.156 5.156 0 0 0-2.427-.608c-1.143 0-2.478.338-2.478 1.289 0 1.03.654 1.393 2.755 2.028 1.932.584 4.575 1.383 4.55 4.518-.012 2.41-2.106 4.034-5.224 4.034z"/><path data-name="Path 1960" d="M26.789 36.707a31.962 31.962 0 0 0 .839 6.095h10.945a31.974 31.974 0 0 0 .839-6.095z"/><path data-name="Path 1961" d="M39.385 49.576a15.835 15.835 0 0 0 5.138-3.6h-3.521a19.537 19.537 0 0 1-1.617 3.6z"/></symbol><symbol viewBox="0 0 84.06 90.526" id="dif-2" xmlns="http://www.w3.org/2000/svg"><path data-name="Path 1962" d="M71.128 77.594H40.414a8.092 8.092 0 0 1-8.083-8.083V53.346a8.092 8.092 0 0 1 8.083-8.083h30.714v-19.4H53.346a8.092 8.092 0 0 1-8.083-8.083V0H8.083A8.092 8.092 0 0 0 0 8.083v74.361a8.092 8.092 0 0 0 8.083 8.083h54.962a8.092 8.092 0 0 0 8.083-8.083zM8.083 19.4h29.1a1.617 1.617 0 1 1 0 3.233h-29.1a1.617 1.617 0 1 1 0-3.233zM6.466 33.947a1.617 1.617 0 0 1 1.617-1.617h35.564a1.617 1.617 0 0 1 0 3.233H8.083a1.617 1.617 0 0 1-1.617-1.616zm0 0"/><path data-name="Path 1963" d="M40.414 48.496h38.8a4.85 4.85 0 0 1 4.85 4.85v16.165a4.85 4.85 0 0 1-4.85 4.85h-38.8a4.85 4.85 0 0 1-4.85-4.85V53.346a4.85 4.85 0 0 1 4.85-4.85zm0 0"/><path data-name="Path 1964" d="M68.842 22.631L48.496 2.286v15.5a4.85 4.85 0 0 0 4.85 4.85zm0 0"/></symbol><symbol viewBox="0 0 90.54 101.933" id="dif-3" xmlns="http://www.w3.org/2000/svg"><path data-name="Path 1965" d="M41.635 48.134c-1.523-.533-2.16-.859-2.16-1.5 0-1.138 1.176-1.439 1.8-1.439 1.194 0 1.439.485 1.439 1.212v.057a.947.947 0 0 0 .946.947h.244a.947.947 0 0 0 .947-.946v-1.64a.948.948 0 0 0-.306-.7 3.733 3.733 0 0 0-2.344-.919v-1.077a.947.947 0 0 0-.946-.947h-.228a.947.947 0 0 0-.947.947v1.152a3.7 3.7 0 0 0-2.782 3.434c0 2.067 1.822 2.69 3.43 3.24 1.667.571 2.364.942 2.364 1.759 0 1.181-1.226 1.5-1.951 1.5a2.781 2.781 0 0 1-1.883-.553 1.973 1.973 0 0 1-.214-.887.947.947 0 0 0-.944-.87h-.192a.947.947 0 0 0-.947.955l.015 1.862a.946.946 0 0 0 .691.9c.041.012.1.024.151.036l.045.01a16.986 16.986 0 0 0 2.218.517v1.568a.947.947 0 0 0 .947.946h.228a.947.947 0 0 0 .946-.946v-1.6a3.7 3.7 0 0 0 3.068-3.473c-.001-2.272-2.016-2.978-3.635-3.545z"/><path data-name="Path 1966" d="M90.54 17.553V0c-4.967 2.177-14.31 5.292-18.659 5.539S47.098 2.578 41.562 3.963c-4.456 1.115-28.92 19.525-36.217 24.6-11.65 8.105-1.34 9.4 3.552 7.53 4.922-1.887 20.785-10.748 20.785-10.748a13.067 13.067 0 0 0 1.827 7.08s1.816 2.545 3.992 5.037a13.575 13.575 0 0 0-2.013 23.597H10.005a2.354 2.354 0 0 0-2.354 2.354v36.165a2.354 2.354 0 0 0 2.354 2.355h62.222a2.354 2.354 0 0 0 2.354-2.355V63.413a2.354 2.354 0 0 0-2.354-2.354H48.749a13.559 13.559 0 0 0 2.607-20.139.7.7 0 0 1-.068-.067c3.393-1.691 6.96-4.721 15.595-8.253 14.544-5.948 19.47-12.7 23.657-15.047zM50.472 31.325a22.071 22.071 0 0 0-5.671 5.433 13.607 13.607 0 0 0-1.884-.39 61.943 61.943 0 0 0-3-7.381 7.6 7.6 0 0 1-.453-3.488c.555-2.122 2.472-4.4 7.888-5.1 9.119-1.177 10.413 3.433 6.292 8.233a22.217 22.217 0 0 1-3.172 2.693zm1.284 35.344a2.346 2.346 0 1 1 0 4.692H30.477a2.346 2.346 0 0 1 0-4.692zm-10.64-6.834a10.005 10.005 0 1 1 2.362-19.726c0 1.586 1.233 2.49 3.268 2.289.313-.031.616-.074.912-.129a10 10 0 0 1-6.542 17.566z"/></symbol><symbol viewBox="0 0 90.758 76.398" id="dif-4" xmlns="http://www.w3.org/2000/svg"><path data-name="Path 1967" d="M38.068 28.938a2.659 2.659 0 0 0 2.659-2.659V0h9.3v26.279a2.659 2.659 0 0 0 2.659 2.659h38.072v9.3H52.69a2.659 2.659 0 0 0-2.659 2.662v26.273h-9.3V40.9a2.659 2.659 0 0 0-2.659-2.659H0v-9.3zm0 0"/><path data-name="Path 1968" d="M35.409 19.86L15.766.217A18.634 18.634 0 0 1 18.612 0h16.8zm0 0"/><path data-name="Path 1969" d="M31.647 23.62H-.003v-5.01A18.632 18.632 0 0 1 10.092 2.064zm0 0"/><path data-name="Path 1970" d="M31.66 43.559L10.155 65.137A18.633 18.633 0 0 1 0 48.56v-5zm0 0"/><path data-name="Path 1971" d="M55.348 19.86V0h16.8a18.635 18.635 0 0 1 2.846.217zm0 0"/><path data-name="Path 1972" d="M35.41 47.33v19.842h-16.8a18.671 18.671 0 0 1-2.772-.206zm0 0"/><path data-name="Path 1973" d="M59.108 23.62L80.663 2.066A18.631 18.631 0 0 1 90.758 18.61v5.01zm0 0"/><path data-name="Path 1974" d="M59.108 43.559h31.65v5a18.633 18.633 0 0 1-10.1 16.549zm0 0"/><path data-name="Path 1975" d="M55.348 47.32l19.637 19.637a18.728 18.728 0 0 1-2.84.216h-2.762l-6.474 8.213a2.659 2.659 0 0 1-4.177 0l-3.385-4.294zm0 0"/></symbol><symbol viewBox="0 0 90.615 103.684" id="dif-5" xmlns="http://www.w3.org/2000/svg"><g data-name="box (2)"><path data-name="Path 1976" d="M72.62 15.769l-8.681-5.012-43.661 25.208 8.681 5.012z"/><path data-name="Path 1977" d="M16.991 34.067l43.661-25.21L45.308-.002 1.647 25.208z"/><path data-name="Path 1978" d="M46.951 103.684l43.664-25.209V28.052l-43.664 25.21z"/><path data-name="Path 1979" d="M23.909 66.901l3.323 3.774v-26.9l-8.686-4.964v29.066l3.458-1.41a1.712 1.712 0 0 1 1.905.434z"/><path data-name="Path 1980" d="M30.518 75.029a1.643 1.643 0 0 1-2.877 1.086l-5.424-6.161-4.6 1.9a1.732 1.732 0 0 1-1.585-.153 1.686 1.686 0 0 1-.775-1.366V36.914L0 28.052v50.423l43.664 25.209V53.262l-13.146-7.59z"/><path data-name="Path 1981" d="M75.906 17.668L32.245 42.876l13.062 7.541 43.661-25.208z"/></g></symbol><symbol viewBox="0 0 90.425 86.275" id="dif-6" xmlns="http://www.w3.org/2000/svg"><g data-name="Group 1137"><g data-name="Group 1136"><path data-name="Rectangle 2216" d="M70.204 29.248h12.041v46.348H70.204z"/></g></g><g data-name="Group 1139"><g data-name="Group 1138"><path data-name="Rectangle 2217" d="M54.755 29.248h11.814v46.348H54.755z"/></g></g><g data-name="Group 1141"><g data-name="Group 1140"><path data-name="Path 1982" d="M45.781 0L2.954 18.35v7.263h85.654V18.35zm-.059 20.9a7.007 7.007 0 1 1 7.007-7.007 7.007 7.007 0 0 1-7.007 7.009z"/></g></g><g data-name="Group 1143"><g data-name="Group 1142"><circle data-name="Ellipse 44" cx="3.372" cy="3.372" r="3.372" transform="translate(42.35 10.523)"/></g></g><g data-name="Group 1145"><g data-name="Group 1144"><path data-name="Rectangle 2218" d="M0 79.232h90.425v7.043H0z"/></g></g><g data-name="Group 1147"><g data-name="Group 1146"><path data-name="Rectangle 2219" d="M9.315 29.248h10.906v46.348H9.315z"/></g></g><g data-name="Group 1149"><g data-name="Group 1148"><path data-name="Rectangle 2220" d="M23.856 29.248H35.67v46.348H23.856z"/></g></g><g data-name="Group 1151"><g data-name="Group 1150"><path data-name="Rectangle 2221" d="M39.305 29.248h11.814v46.348H39.305z"/></g></g></symbol><symbol viewBox="0 0 30.191 31.191" id="phone" xmlns="http://www.w3.org/2000/svg"><path data-name="Path 1907" d="M29.6 24.007l-3.347-2.232-2.975-1.983a1.318 1.318 0 0 0-1.77.287l-1.841 2.367a1.311 1.311 0 0 1-1.667.347 21.436 21.436 0 0 1-5.986-4.613A21.589 21.589 0 0 1 7.4 12.194a1.311 1.311 0 0 1 .347-1.674l2.367-1.841a1.318 1.318 0 0 0 .287-1.77L8.477 4.026 6.185.587A1.318 1.318 0 0 0 4.41.188L1.766 1.774A3.23 3.23 0 0 0 .3 3.672c-.723 2.636-.869 8.451 8.45 17.77s15.133 9.173 17.769 8.45a3.23 3.23 0 0 0 1.9-1.467L30 25.781a1.318 1.318 0 0 0-.4-1.774z"/></symbol><symbol viewBox="0 0 134.02 179.692" id="qst" xmlns="http://www.w3.org/2000/svg"><path data-name="Path 246" d="M54.407 117.049q0-12.978 5.865-21.463t17.1-18.718a99.6 99.6 0 0 0 12.1-12.6 18.744 18.744 0 0 0 3.868-11.605 17.115 17.115 0 0 0-7.362-14.6q-7.361-5.369-19.592-5.369a43.539 43.539 0 0 0-20.839 4.867 44.419 44.419 0 0 0-15.349 13.6l-30.2-17.72A69.906 69.906 0 0 1 28.324 8.733q17.844-8.735 42.3-8.735 28.7 0 46.046 12.229t17.347 33.944a44.675 44.675 0 0 1-3.369 17.969 47.587 47.587 0 0 1-8.236 13.1q-4.867 5.366-12.6 12.354a104.882 104.882 0 0 0-13.477 13.851 21.911 21.911 0 0 0-4.243 13.6zm18.967 62.643a23.667 23.667 0 0 1-17.1-6.614 21.513 21.513 0 0 1-6.863-16.1 20.906 20.906 0 0 1 6.738-15.848q6.738-6.364 17.22-6.364t17.22 6.364a20.906 20.906 0 0 1 6.738 15.848 21.513 21.513 0 0 1-6.863 16.1 23.667 23.667 0 0 1-17.09 6.614z"/></symbol><symbol viewBox="0 0 77.758 64.938" id="quote" xmlns="http://www.w3.org/2000/svg"><path data-name="Path 1983" d="M24.887 29.429a20.6 20.6 0 0 0-5.693-.831 17.891 17.891 0 0 0-7.139 1.462c1.794-6.569 6.105-17.9 14.692-19.181a2.04 2.04 0 0 0 1.664-1.467l1.877-6.713A2.04 2.04 0 0 0 28.6.131 14.255 14.255 0 0 0 26.68 0C16.373 0 6.165 10.758 1.857 26.163-.67 35.2-1.411 48.787 4.817 57.342c3.485 4.785 8.57 7.341 15.113 7.6h.08a18.09 18.09 0 0 0 4.877-35.508z"/><path data-name="Path 1984" d="M75.423 37.973a18.133 18.133 0 0 0-10.876-8.543 20.6 20.6 0 0 0-5.692-.831 17.9 17.9 0 0 0-7.139 1.462c1.794-6.569 6.105-17.9 14.693-19.181a2.041 2.041 0 0 0 1.664-1.467L69.95 2.7A2.04 2.04 0 0 0 68.263.131 14.237 14.237 0 0 0 66.343 0C56.035 0 45.827 10.758 41.519 26.163c-2.528 9.037-3.269 22.624 2.96 31.178 3.484 4.785 8.57 7.341 15.112 7.6h.081a18.09 18.09 0 0 0 15.751-26.968z"/></symbol></svg>