<?xml version="1.0" encoding="utf-8"?><svg xmlns="http://www.w3.org/2000/svg" xmlns:xlink="http://www.w3.org/1999/xlink"><symbol viewBox="0 0 41.061 34.16" id="arrow" xmlns="http://www.w3.org/2000/svg"><path data-name="Path 1919" d="M40.405 15.485L25.576.654a2.254 2.254 0 0 0-3.176 0l-1.346 1.347a2.231 2.231 0 0 0-.656 1.589 2.275 2.275 0 0 0 .656 1.608l8.651 8.67H2.218A2.193 2.193 0 0 0 0 16.079v1.9a2.277 2.277 0 0 0 2.218 2.307H29.8l-8.749 8.718a2.226 2.226 0 0 0 0 3.156l1.349 1.346a2.254 2.254 0 0 0 3.178 0l14.827-14.832a2.266 2.266 0 0 0 0-3.19z"/></symbol><symbol viewBox="0 0 24.205 23.432" id="check" xmlns="http://www.w3.org/2000/svg"><path data-name="Path 215" d="M11.176 22.622l12.7-18.605a1.889 1.889 0 0 0-.5-2.624L21.823.328a1.888 1.888 0 0 0-2.624.5L8.694 16.212l-4.612-3.29a1.888 1.888 0 0 0-2.633.44l-1.1 1.537a1.888 1.888 0 0 0 .44 2.633l7.783 5.553a1.841 1.841 0 0 0 2.604-.463z"/></symbol><symbol viewBox="0 0 30.307 30.307" id="click" xmlns="http://www.w3.org/2000/svg"><path data-name="Path 1911" d="M30.047 25.024l-5.121-5.121 2.511-2.511a.888.888 0 0 0-.347-1.47l-15.068-5.023a.888.888 0 0 0-1.123 1.123l5.023 15.068a.888.888 0 0 0 1.47.347l2.511-2.511 5.121 5.121a.888.888 0 0 0 1.256 0l3.767-3.767a.888.888 0 0 0 0-1.256zm-4.395 3.139l-5.121-5.121a.888.888 0 0 0-1.256 0l-2.123 2.123-4.007-12.021 12.021 4.007-2.123 2.123a.888.888 0 0 0 0 1.256l5.121 5.121z"/><path data-name="Path 1912" d="M11.543 7.1a.888.888 0 0 0 .888-.888V.888a.888.888 0 1 0-1.776 0v5.327a.888.888 0 0 0 .888.885z"/><path data-name="Path 1913" d="M4.636 3.381A.888.888 0 1 0 3.38 4.637L7.148 8.4A.888.888 0 1 0 8.4 7.148z"/><path data-name="Path 1914" d="M7.148 14.682l-3.767 3.767a.888.888 0 0 0 1.256 1.256L8.4 15.937a.888.888 0 0 0-1.256-1.256z"/><path data-name="Path 1915" d="M15.937 8.4l3.767-3.767a.888.888 0 1 0-1.256-1.256l-3.766 3.771A.888.888 0 1 0 15.937 8.4z"/><path data-name="Path 1916" d="M7.1 11.543a.888.888 0 0 0-.885-.888H.888a.888.888 0 1 0 0 1.776h5.327a.888.888 0 0 0 .885-.888z"/></symbol><symbol viewBox="0 0 30.191 31.191" id="phone" xmlns="http://www.w3.org/2000/svg"><path data-name="Path 1907" d="M29.6 24.007l-3.347-2.232-2.975-1.983a1.318 1.318 0 0 0-1.77.287l-1.841 2.367a1.311 1.311 0 0 1-1.667.347 21.436 21.436 0 0 1-5.986-4.613A21.589 21.589 0 0 1 7.4 12.194a1.311 1.311 0 0 1 .347-1.674l2.367-1.841a1.318 1.318 0 0 0 .287-1.77L8.477 4.026 6.185.587A1.318 1.318 0 0 0 4.41.188L1.766 1.774A3.23 3.23 0 0 0 .3 3.672c-.723 2.636-.869 8.451 8.45 17.77s15.133 9.173 17.769 8.45a3.23 3.23 0 0 0 1.9-1.467L30 25.781a1.318 1.318 0 0 0-.4-1.774z"/></symbol><symbol viewBox="0 0 134.02 179.692" id="qst" xmlns="http://www.w3.org/2000/svg"><path data-name="Path 246" d="M54.407 117.049q0-12.978 5.865-21.463t17.1-18.718a99.6 99.6 0 0 0 12.1-12.6 18.744 18.744 0 0 0 3.868-11.605 17.115 17.115 0 0 0-7.362-14.6q-7.361-5.369-19.592-5.369a43.539 43.539 0 0 0-20.839 4.867 44.419 44.419 0 0 0-15.349 13.6l-30.2-17.72A69.906 69.906 0 0 1 28.324 8.733q17.844-8.735 42.3-8.735 28.7 0 46.046 12.229t17.347 33.944a44.675 44.675 0 0 1-3.369 17.969 47.587 47.587 0 0 1-8.236 13.1q-4.867 5.366-12.6 12.354a104.882 104.882 0 0 0-13.477 13.851 21.911 21.911 0 0 0-4.243 13.6zm18.967 62.643a23.667 23.667 0 0 1-17.1-6.614 21.513 21.513 0 0 1-6.863-16.1 20.906 20.906 0 0 1 6.738-15.848q6.738-6.364 17.22-6.364t17.22 6.364a20.906 20.906 0 0 1 6.738 15.848 21.513 21.513 0 0 1-6.863 16.1 23.667 23.667 0 0 1-17.09 6.614z"/></symbol><symbol viewBox="0 0 77.758 64.938" id="quote" xmlns="http://www.w3.org/2000/svg"><path data-name="Path 1983" d="M24.887 29.429a20.6 20.6 0 0 0-5.693-.831 17.891 17.891 0 0 0-7.139 1.462c1.794-6.569 6.105-17.9 14.692-19.181a2.04 2.04 0 0 0 1.664-1.467l1.877-6.713A2.04 2.04 0 0 0 28.6.131 14.255 14.255 0 0 0 26.68 0C16.373 0 6.165 10.758 1.857 26.163-.67 35.2-1.411 48.787 4.817 57.342c3.485 4.785 8.57 7.341 15.113 7.6h.08a18.09 18.09 0 0 0 4.877-35.508z"/><path data-name="Path 1984" d="M75.423 37.973a18.133 18.133 0 0 0-10.876-8.543 20.6 20.6 0 0 0-5.692-.831 17.9 17.9 0 0 0-7.139 1.462c1.794-6.569 6.105-17.9 14.693-19.181a2.041 2.041 0 0 0 1.664-1.467L69.95 2.7A2.04 2.04 0 0 0 68.263.131 14.237 14.237 0 0 0 66.343 0C56.035 0 45.827 10.758 41.519 26.163c-2.528 9.037-3.269 22.624 2.96 31.178 3.484 4.785 8.57 7.341 15.112 7.6h.081a18.09 18.09 0 0 0 15.751-26.968z"/></symbol></svg>