<svg id="Group_1132" data-name="Group 1132" xmlns="http://www.w3.org/2000/svg" width="90.254" height="90.389" viewBox="0 0 90.254 90.389">
  <path id="Path_1946" data-name="Path 1946" d="M482.7,92.121,464.458,86.84v70.429a9.5,9.5,0,0,1-.058,1.041,4.754,4.754,0,0,0,5.029-3.408l16.514-56.89A4.755,4.755,0,0,0,482.7,92.121Z" transform="translate(-395.878 -74.014)" fill="rgba(78,71,170,0.6)"/>
  <path id="Path_1947" data-name="Path 1947" d="M152.379,139.871a15.835,15.835,0,0,0-5.138,3.6h3.522A19.541,19.541,0,0,1,152.379,139.871Z" transform="translate(-125.562 -119.213)" fill="rgba(78,71,170,0.6)"/>
  <path id="Path_1948" data-name="Path 1948" d="M125.266,185.771h-5a15.651,15.651,0,0,0-1.925,6.095h6.2A36.3,36.3,0,0,1,125.266,185.771Z" transform="translate(-100.927 -158.334)" fill="rgba(78,71,170,0.6)"/>
  <path id="Path_1949" data-name="Path 1949" d="M272.264,143.476a15.838,15.838,0,0,0-5.138-3.6,19.529,19.529,0,0,1,1.616,3.6Z" transform="translate(-227.741 -119.215)" fill="rgba(78,71,170,0.6)"/>
  <path id="Path_1950" data-name="Path 1950" d="M147.239,311.3a15.835,15.835,0,0,0,5.138,3.6,19.54,19.54,0,0,1-1.616-3.6Z" transform="translate(-125.56 -265.324)" fill="rgba(78,71,170,0.6)"/>
  <path id="Path_1951" data-name="Path 1951" d="M194.463,191.865a31.968,31.968,0,0,0-.839-6.095H182.678a31.931,31.931,0,0,0-.839,6.095Z" transform="translate(-155.05 -158.333)" fill="rgba(78,71,170,0.6)"/>
  <path id="Path_1952" data-name="Path 1952" d="M198.794,131c-1.569,0-3.236,1.853-4.467,4.913h8.935C202.03,132.855,200.364,131,198.794,131Z" transform="translate(-165.694 -111.654)" fill="rgba(78,71,170,0.6)"/>
  <path id="Path_1953" data-name="Path 1953" d="M124.537,248.536h-6.2a15.649,15.649,0,0,0,1.925,6.095h5A36.345,36.345,0,0,1,124.537,248.536Z" transform="translate(-100.926 -211.829)" fill="rgba(78,71,170,0.6)"/>
  <path id="Path_1954" data-name="Path 1954" d="M284.633,191.865h6.2a15.649,15.649,0,0,0-1.925-6.095h-5A36.333,36.333,0,0,1,284.633,191.865Z" transform="translate(-242.041 -158.333)" fill="rgba(78,71,170,0.6)"/>
  <path id="Path_1955" data-name="Path 1955" d="M198.793,316.217c1.57,0,3.236-1.853,4.468-4.913h-8.935C195.558,314.364,197.224,316.217,198.793,316.217Z" transform="translate(-165.693 -265.326)" fill="rgba(78,71,170,0.6)"/>
  <path id="Path_1956" data-name="Path 1956" d="M283.9,254.631h5a15.65,15.65,0,0,0,1.925-6.095h-6.2A36.293,36.293,0,0,1,283.9,254.631Z" transform="translate(-242.041 -211.829)" fill="rgba(78,71,170,0.6)"/>
  <path id="Path_1957" data-name="Path 1957" d="M97.33,437.134H94.607v5.183H97.33c2.154,0,3.247-.886,3.247-2.635C100.576,437.991,99.484,437.134,97.33,437.134Z" transform="translate(-80.702 -372.572)" fill="rgba(78,71,170,0.6)"/>
  <path id="Path_1958" data-name="Path 1958" d="M172.445,451.736h3.761l-1.9-4.1Z" transform="translate(-147.043 -381.519)" fill="rgba(78,71,170,0.6)"/>
  <path id="Path_1959" data-name="Path 1959" d="M59.525,0H7.591A7.142,7.142,0,0,0,.457,7.134V83.255a7.142,7.142,0,0,0,7.134,7.134H59.525a7.142,7.142,0,0,0,7.134-7.134V7.134A7.142,7.142,0,0,0,59.525,0ZM33.558,16.173A18.947,18.947,0,1,1,14.612,35.119,18.968,18.968,0,0,1,33.558,16.173Zm-19.2,56.061V75.24a1.189,1.189,0,0,1-1.189,1.189h-.112a1.189,1.189,0,0,1-1.189-1.189V63.26a1.189,1.189,0,0,1,1.189-1.189h4.024c3.538,0,5.736,1.931,5.736,5.038,0,3.161-2.2,5.124-5.736,5.124H14.362Zm20.02,3.646a1.189,1.189,0,0,1-1,.549h-.139a1.189,1.189,0,0,1-1.08-.692l-1.395-3.031H24.729l-1.378,3.027a1.189,1.189,0,0,1-1.082.7h-.158a1.189,1.189,0,0,1-1.081-1.684l5.484-11.98a1.189,1.189,0,0,1,1.081-.694h.232a1.189,1.189,0,0,1,1.079.689l5.553,11.98A1.19,1.19,0,0,1,34.382,75.88Zm5.285.549A7.206,7.206,0,0,1,34.832,74.5a1.189,1.189,0,0,1-.014-1.7l.075-.075a1.189,1.189,0,0,1,1.679,0,4.648,4.648,0,0,0,3.095,1.212c1.256,0,2.723-.406,2.723-1.55.01-1.1-.657-1.48-2.8-2.131-1.9-.575-4.5-1.361-4.5-4.407,0-2.261,2-3.779,4.968-3.779a7.569,7.569,0,0,1,3.7.982,1.189,1.189,0,0,1,.4,1.646l-.049.078a1.189,1.189,0,0,1-1.62.392,5.155,5.155,0,0,0-2.428-.608c-1.143,0-2.478.338-2.478,1.289,0,1.03.654,1.393,2.755,2.028,1.932.584,4.575,1.383,4.551,4.518C44.88,74.805,42.785,76.429,39.667,76.429Zm10.365,0A7.2,7.2,0,0,1,45.2,74.5a1.189,1.189,0,0,1-.016-1.7l.075-.075a1.189,1.189,0,0,1,1.68,0,4.649,4.649,0,0,0,3.1,1.212c1.256,0,2.722-.406,2.722-1.55.009-1.1-.657-1.48-2.8-2.131-1.9-.575-4.5-1.362-4.5-4.407,0-2.261,2-3.779,4.968-3.779a7.571,7.571,0,0,1,3.7.982,1.188,1.188,0,0,1,.392,1.651l-.049.078a1.189,1.189,0,0,1-1.617.387,5.156,5.156,0,0,0-2.427-.608c-1.143,0-2.478.338-2.478,1.289,0,1.03.654,1.393,2.755,2.028,1.932.584,4.575,1.383,4.55,4.518C55.243,74.805,53.149,76.429,50.031,76.429Z" transform="translate(-0.457)" fill="rgba(78,71,170,0.6)"/>
  <path id="Path_1960" data-name="Path 1960" d="M181.839,248.536a31.962,31.962,0,0,0,.839,6.095h10.945a31.974,31.974,0,0,0,.839-6.095Z" transform="translate(-155.05 -211.829)" fill="rgba(78,71,170,0.6)"/>
  <path id="Path_1961" data-name="Path 1961" d="M267.126,314.9a15.835,15.835,0,0,0,5.138-3.6h-3.521A19.537,19.537,0,0,1,267.126,314.9Z" transform="translate(-227.741 -265.324)" fill="rgba(78,71,170,0.6)"/>
</svg>
