<svg xmlns="http://www.w3.org/2000/svg" width="41.061" height="34.16" viewBox="0 0 41.061 34.16">
  <path id="Path_1919" data-name="Path 1919" d="M40.405,56.831,25.576,42A2.254,2.254,0,0,0,22.4,42l-1.346,1.347a2.231,2.231,0,0,0-.656,1.589,2.275,2.275,0,0,0,.656,1.608l8.651,8.67H2.218A2.193,2.193,0,0,0,0,57.425v1.9a2.277,2.277,0,0,0,2.218,2.307H29.8l-8.749,8.718a2.226,2.226,0,0,0,0,3.156L22.4,74.852a2.254,2.254,0,0,0,3.178,0L40.405,60.02a2.266,2.266,0,0,0,0-3.19Z" transform="translate(0 -41.346)" fill="#fff"/>
</svg>
