<svg id="click" xmlns="http://www.w3.org/2000/svg" width="30.307" height="30.307" viewBox="0 0 30.307 30.307">
  <path id="Path_1911" data-name="Path 1911" d="M202.553,197.53l-5.121-5.121,2.511-2.511a.888.888,0,0,0-.347-1.47l-15.068-5.023a.888.888,0,0,0-1.123,1.123l5.023,15.068a.888.888,0,0,0,1.47.347l2.511-2.511,5.121,5.121a.888.888,0,0,0,1.256,0l3.767-3.767A.888.888,0,0,0,202.553,197.53Zm-4.395,3.139-5.121-5.121a.888.888,0,0,0-1.256,0l-2.123,2.123-4.007-12.021,12.021,4.007-2.123,2.123a.888.888,0,0,0,0,1.256l5.121,5.121Z" transform="translate(-172.506 -172.506)" fill="#fff"/>
  <path id="Path_1912" data-name="Path 1912" d="M180.888,7.1a.888.888,0,0,0,.888-.888V.888a.888.888,0,1,0-1.776,0V6.215A.888.888,0,0,0,180.888,7.1Z" transform="translate(-169.345)" fill="#fff"/>
  <path id="Path_1913" data-name="Path 1913" d="M54.236,52.981a.888.888,0,1,0-1.256,1.256L56.748,58A.888.888,0,1,0,58,56.748Z" transform="translate(-49.6 -49.6)" fill="#fff"/>
  <path id="Path_1914" data-name="Path 1914" d="M56.748,243.9l-3.767,3.767a.888.888,0,0,0,1.256,1.256L58,245.155a.888.888,0,0,0-1.256-1.256Z" transform="translate(-49.6 -229.218)" fill="#fff"/>
  <path id="Path_1915" data-name="Path 1915" d="M245.155,58l3.767-3.767a.888.888,0,1,0-1.256-1.256L243.9,56.748A.888.888,0,1,0,245.155,58Z" transform="translate(-229.218 -49.6)" fill="#fff"/>
  <path id="Path_1916" data-name="Path 1916" d="M7.1,180.888A.888.888,0,0,0,6.215,180H.888a.888.888,0,1,0,0,1.776H6.215A.888.888,0,0,0,7.1,180.888Z" transform="translate(0 -169.345)" fill="#fff"/>
</svg>
