<svg xmlns="http://www.w3.org/2000/svg" width="90.425" height="86.275" viewBox="0 0 90.425 86.275">
  <g id="parliament" transform="translate(0 -9.133)">
    <g id="Group_1137" data-name="Group 1137" transform="translate(70.204 38.381)">
      <g id="Group_1136" data-name="Group 1136">
        <rect id="Rectangle_2216" data-name="Rectangle 2216" width="12.041" height="46.348" fill="#9185ca"/>
      </g>
    </g>
    <g id="Group_1139" data-name="Group 1139" transform="translate(54.755 38.381)">
      <g id="Group_1138" data-name="Group 1138">
        <rect id="Rectangle_2217" data-name="Rectangle 2217" width="11.814" height="46.348" fill="#9185ca"/>
      </g>
    </g>
    <g id="Group_1141" data-name="Group 1141" transform="translate(2.954 9.133)">
      <g id="Group_1140" data-name="Group 1140" transform="translate(0 0)">
        <path id="Path_1982" data-name="Path 1982" d="M55.827,9.133,13,27.483v7.263H98.654V27.483Zm-.059,20.9a7.007,7.007,0,1,1,7.007-7.007A7.007,7.007,0,0,1,55.768,30.035Z" transform="translate(-13 -9.133)" fill="#9185ca"/>
      </g>
    </g>
    <g id="Group_1143" data-name="Group 1143" transform="translate(42.35 19.656)">
      <g id="Group_1142" data-name="Group 1142">
        <circle id="Ellipse_44" data-name="Ellipse 44" cx="3.372" cy="3.372" r="3.372" fill="#9185ca"/>
      </g>
    </g>
    <g id="Group_1145" data-name="Group 1145" transform="translate(0 88.365)">
      <g id="Group_1144" data-name="Group 1144" transform="translate(0 0)">
        <rect id="Rectangle_2218" data-name="Rectangle 2218" width="90.425" height="7.043" fill="#9185ca"/>
      </g>
    </g>
    <g id="Group_1147" data-name="Group 1147" transform="translate(9.315 38.381)">
      <g id="Group_1146" data-name="Group 1146">
        <rect id="Rectangle_2219" data-name="Rectangle 2219" width="10.906" height="46.348" fill="#9185ca"/>
      </g>
    </g>
    <g id="Group_1149" data-name="Group 1149" transform="translate(23.856 38.381)">
      <g id="Group_1148" data-name="Group 1148">
        <rect id="Rectangle_2220" data-name="Rectangle 2220" width="11.814" height="46.348" fill="#9185ca"/>
      </g>
    </g>
    <g id="Group_1151" data-name="Group 1151" transform="translate(39.305 38.381)">
      <g id="Group_1150" data-name="Group 1150">
        <rect id="Rectangle_2221" data-name="Rectangle 2221" width="11.814" height="46.348" fill="#9185ca"/>
      </g>
    </g>
  </g>
</svg>
