<svg id="document" xmlns="http://www.w3.org/2000/svg" width="84.06" height="90.526" viewBox="0 0 84.06 90.526">
  <path id="Path_1962" data-name="Path 1962" d="M71.128,77.594H40.414a8.092,8.092,0,0,1-8.083-8.083V53.346a8.092,8.092,0,0,1,8.083-8.083H71.128v-19.4H53.346a8.092,8.092,0,0,1-8.083-8.083V0H8.083A8.092,8.092,0,0,0,0,8.083V82.444a8.092,8.092,0,0,0,8.083,8.083H63.045a8.092,8.092,0,0,0,8.083-8.083ZM8.083,19.4h29.1a1.617,1.617,0,1,1,0,3.233H8.083a1.617,1.617,0,1,1,0-3.233ZM6.466,33.947a1.617,1.617,0,0,1,1.617-1.617H43.647a1.617,1.617,0,0,1,0,3.233H8.083A1.617,1.617,0,0,1,6.466,33.947Zm0,0" fill="#8f89ca"/>
  <path id="Path_1963" data-name="Path 1963" d="M180.85,240h38.8a4.85,4.85,0,0,1,4.85,4.85v16.165a4.85,4.85,0,0,1-4.85,4.85h-38.8a4.85,4.85,0,0,1-4.85-4.85V244.85A4.85,4.85,0,0,1,180.85,240Zm0,0" transform="translate(-140.436 -191.504)" fill="#8f89ca"/>
  <path id="Path_1964" data-name="Path 1964" d="M260.346,31.658,240,11.313v15.5a4.85,4.85,0,0,0,4.85,4.85Zm0,0" transform="translate(-191.504 -9.027)" fill="#8f89ca"/>
</svg>
