<svg id="Group_1152" data-name="Group 1152" xmlns="http://www.w3.org/2000/svg" width="77.758" height="64.938" viewBox="0 0 77.758 64.938">
  <path id="Path_1983" data-name="Path 1983" d="M24.887,37.287a20.6,20.6,0,0,0-5.693-.831,17.891,17.891,0,0,0-7.139,1.462c1.794-6.569,6.105-17.9,14.692-19.181a2.04,2.04,0,0,0,1.664-1.467l1.877-6.713A2.04,2.04,0,0,0,28.6,7.989a14.255,14.255,0,0,0-1.92-.131c-10.307,0-20.515,10.758-24.823,26.163C-.67,43.058-1.411,56.645,4.817,65.2c3.485,4.785,8.57,7.341,15.113,7.6l.08,0a18.09,18.09,0,0,0,4.877-35.508Z" transform="translate(0 -7.858)" fill="#d7d4ec"/>
  <path id="Path_1984" data-name="Path 1984" d="M84.388,45.831a18.133,18.133,0,0,0-10.876-8.543,20.6,20.6,0,0,0-5.692-.831,17.9,17.9,0,0,0-7.139,1.462c1.794-6.569,6.105-17.9,14.693-19.181a2.041,2.041,0,0,0,1.664-1.467l1.877-6.713a2.04,2.04,0,0,0-1.687-2.569,14.237,14.237,0,0,0-1.92-.131C65,7.858,54.792,18.616,50.484,34.021c-2.528,9.037-3.269,22.624,2.96,31.178,3.484,4.785,8.57,7.341,15.112,7.6l.081,0A18.09,18.09,0,0,0,84.388,45.831Z" transform="translate(-8.965 -7.858)" fill="#d7d4ec"/>
</svg>
