<svg xmlns="http://www.w3.org/2000/svg" width="90.615" height="103.684" viewBox="0 0 90.615 103.684">
  <g id="box_2_" data-name="box (2)" transform="translate(-63 -33.143)">
    <path id="Path_1976" data-name="Path 1976" d="M201.72,83.976l-8.681-5.012-43.661,25.208,8.681,5.012Z" transform="translate(-66.1 -35.064)" fill="#9087ca"/>
    <path id="Path_1977" data-name="Path 1977" d="M85.358,67.21,129.019,42l-15.344-8.859L70.014,58.351Z" transform="translate(-5.367)" fill="#9087ca"/>
    <path id="Path_1978" data-name="Path 1978" d="M263,228.27l43.664-25.209V152.638L263,177.848Z" transform="translate(-153.049 -91.443)" fill="#9087ca"/>
    <path id="Path_1979" data-name="Path 1979" d="M147.363,226.558l3.323,3.774v-26.9L142,198.468v29.066l3.458-1.41A1.712,1.712,0,0,1,147.363,226.558Z" transform="translate(-60.454 -126.514)" fill="#9087ca"/>
    <path id="Path_1980" data-name="Path 1980" d="M93.518,199.615a1.643,1.643,0,0,1-2.877,1.086l-5.424-6.161-4.6,1.9a1.732,1.732,0,0,1-1.585-.153,1.686,1.686,0,0,1-.775-1.366V161.5L63,152.638v50.423l43.664,25.209V177.848l-13.146-7.59Z" transform="translate(0 -91.443)" fill="#9087ca"/>
    <path id="Path_1981" data-name="Path 1981" d="M244.02,108.4l-43.661,25.208,13.062,7.541,43.661-25.208Z" transform="translate(-105.114 -57.589)" fill="#9087ca"/>
  </g>
</svg>
