<svg id="Group_1133" data-name="Group 1133" xmlns="http://www.w3.org/2000/svg" width="90.54" height="101.933" viewBox="0 0 90.54 101.933">
  <path id="Path_1965" data-name="Path 1965" d="M186.737,182.719c-1.523-.533-2.16-.859-2.16-1.5,0-1.138,1.176-1.439,1.8-1.439,1.194,0,1.439.485,1.439,1.212v.057a.947.947,0,0,0,.946.947h.244a.947.947,0,0,0,.947-.946V179.41a.948.948,0,0,0-.306-.7,3.733,3.733,0,0,0-2.344-.919v-1.077a.947.947,0,0,0-.946-.947h-.228a.947.947,0,0,0-.947.947v1.152A3.7,3.7,0,0,0,182.4,181.3c0,2.067,1.822,2.69,3.43,3.24,1.667.571,2.364.942,2.364,1.759,0,1.181-1.226,1.5-1.951,1.5a2.781,2.781,0,0,1-1.883-.553,1.973,1.973,0,0,1-.214-.887.947.947,0,0,0-.944-.87h-.192a.947.947,0,0,0-.947.955l.015,1.862a.946.946,0,0,0,.691.9c.041.012.1.024.151.036l.045.01a16.986,16.986,0,0,0,2.218.517v1.568a.947.947,0,0,0,.947.946h.228a.947.947,0,0,0,.946-.946v-1.6a3.7,3.7,0,0,0,3.068-3.473C190.371,183.992,188.356,183.286,186.737,182.719Z" transform="translate(-145.102 -134.585)" fill="#9087ca"/>
  <path id="Path_1966" data-name="Path 1966" d="M114.852,17.553V0c-4.967,2.177-14.31,5.292-18.659,5.539S71.41,2.578,65.874,3.963c-4.456,1.115-28.92,19.525-36.217,24.6-11.65,8.105-1.34,9.4,3.552,7.53,4.922-1.887,20.785-10.748,20.785-10.748a13.067,13.067,0,0,0,1.827,7.08s1.816,2.545,3.992,5.037A13.575,13.575,0,0,0,57.8,61.059H34.317a2.354,2.354,0,0,0-2.354,2.354V99.578a2.354,2.354,0,0,0,2.354,2.355H96.539a2.354,2.354,0,0,0,2.354-2.355V63.413a2.354,2.354,0,0,0-2.354-2.354H73.061a13.559,13.559,0,0,0,2.607-20.139.7.7,0,0,1-.068-.067c3.393-1.691,6.96-4.721,15.595-8.253C105.739,26.652,110.665,19.9,114.852,17.553ZM74.784,31.325a22.071,22.071,0,0,0-5.671,5.433,13.607,13.607,0,0,0-1.884-.39,61.943,61.943,0,0,0-3-7.381,7.6,7.6,0,0,1-.453-3.488c.555-2.122,2.472-4.4,7.888-5.1,9.119-1.177,10.413,3.433,6.292,8.233A22.217,22.217,0,0,1,74.784,31.325Zm1.284,35.344a2.346,2.346,0,1,1,0,4.692H54.789a2.346,2.346,0,0,1,0-4.692ZM65.428,59.835A10.005,10.005,0,1,1,67.79,40.109c0,1.586,1.233,2.49,3.268,2.289.313-.031.616-.074.912-.129a10,10,0,0,1-6.542,17.566Z" transform="translate(-24.312)" fill="#9087ca"/>
</svg>
