<svg xmlns="http://www.w3.org/2000/svg" xmlns:xlink="http://www.w3.org/1999/xlink" width="30.191" height="31.191" viewBox="0 0 30.191 31.191">
    <g transform="matrix(1, 0, 0, 1, 0, 0)">
    <path id="Path_1907-2" data-name="Path 1907" d="M29.6,24.007l-3.347-2.232-2.975-1.983a1.318,1.318,0,0,0-1.77.287l-1.841,2.367A1.311,1.311,0,0,1,18,22.793a21.436,21.436,0,0,1-5.986-4.613A21.589,21.589,0,0,1,7.4,12.194a1.311,1.311,0,0,1,.347-1.674l2.367-1.841a1.318,1.318,0,0,0,.287-1.77L8.477,4.026,6.185.587A1.318,1.318,0,0,0,4.41.188L1.766,1.774A3.23,3.23,0,0,0,.3,3.672c-.723,2.636-.869,8.451,8.45,17.77s15.133,9.173,17.769,8.45a3.23,3.23,0,0,0,1.9-1.467L30,25.781A1.318,1.318,0,0,0,29.6,24.007Z" transform="translate(0 0)" fill="#fff"/>
  </g>
</svg>
