<svg xmlns="http://www.w3.org/2000/svg" width="134.02" height="179.692" viewBox="0 0 134.02 179.692">
  <path id="Path_246" data-name="Path 246" d="M54.09-108.655q0-12.978,5.865-21.463t17.1-18.718a99.6,99.6,0,0,0,12.1-12.6,18.744,18.744,0,0,0,3.868-11.605,17.115,17.115,0,0,0-7.362-14.6Q78.3-193.01,66.069-193.01a43.539,43.539,0,0,0-20.839,4.867,44.419,44.419,0,0,0-15.349,13.6l-30.2-17.72a69.906,69.906,0,0,1,28.326-24.708q17.844-8.735,42.3-8.735,28.7,0,46.046,12.229T133.7-179.533a44.675,44.675,0,0,1-3.369,17.969,47.587,47.587,0,0,1-8.236,13.1q-4.867,5.366-12.6,12.354a104.882,104.882,0,0,0-13.477,13.851,21.911,21.911,0,0,0-4.243,13.6ZM73.057-46.012a23.667,23.667,0,0,1-17.1-6.614,21.513,21.513,0,0,1-6.863-16.1,20.906,20.906,0,0,1,6.738-15.848q6.738-6.364,17.22-6.364t17.22,6.364a20.906,20.906,0,0,1,6.738,15.848,21.513,21.513,0,0,1-6.863,16.1A23.667,23.667,0,0,1,73.057-46.012Z" transform="translate(0.317 225.704)" fill="#ededf0"/>
</svg>
